<?xml version="1.0" encoding="UTF-8" standalone="no"?>
<!-- Created with Inkscape (http://www.inkscape.org/) -->

<svg
   width="66.807289mm"
   height="64.975494mm"
   viewBox="0 0 66.807289 64.975494"
   version="1.1"
   id="svg1"
   inkscape:version="1.3.2 (091e20e, 2023-11-25)"
   sodipodi:docname="4_10b1.svg"
   xmlns:inkscape="http://www.inkscape.org/namespaces/inkscape"
   xmlns:sodipodi="http://sodipodi.sourceforge.net/DTD/sodipodi-0.dtd"
   xmlns="http://www.w3.org/2000/svg"
   xmlns:svg="http://www.w3.org/2000/svg">
  <sodipodi:namedview
     id="namedview1"
     pagecolor="#ffffff"
     bordercolor="#000000"
     borderopacity="0.25"
     inkscape:showpageshadow="2"
     inkscape:pageopacity="0.0"
     inkscape:pagecheckerboard="0"
     inkscape:deskcolor="#d1d1d1"
     inkscape:document-units="mm"
     inkscape:zoom="0.2102413"
     inkscape:cx="126.04564"
     inkscape:cy="123.66742"
     inkscape:window-width="1312"
     inkscape:window-height="449"
     inkscape:window-x="0"
     inkscape:window-y="38"
     inkscape:window-maximized="0"
     inkscape:current-layer="layer1" />
  <defs
     id="defs1" />
  <g
     inkscape:label="Layer 1"
     inkscape:groupmode="layer"
     id="layer1"
     transform="translate(-71.702084,-115.8875)">
    <path
       fill="none"
       stroke-width="0.264583"
       stroke-linecap="round"
       stroke-linejoin="round"
       stroke="#000000"
       stroke-opacity="1"
       stroke-miterlimit="10"
       d="M 78.502702,173.25385 H 131.84243"
       id="path10" />
    <path
       fill="none"
       stroke-width="0.264583"
       stroke-linecap="round"
       stroke-linejoin="round"
       stroke="#000000"
       stroke-opacity="1"
       stroke-miterlimit="10"
       d="m 78.502702,173.25385 v 2.096"
       id="path11" />
    <path
       fill="none"
       stroke-width="0.264583"
       stroke-linecap="round"
       stroke-linejoin="round"
       stroke="#000000"
       stroke-opacity="1"
       stroke-miterlimit="10"
       d="m 91.837977,173.25385 v 2.096"
       id="path12" />
    <path
       fill="none"
       stroke-width="0.264583"
       stroke-linecap="round"
       stroke-linejoin="round"
       stroke="#000000"
       stroke-opacity="1"
       stroke-miterlimit="10"
       d="m 105.17187,173.25385 v 2.096"
       id="path13" />
    <path
       fill="none"
       stroke-width="0.264583"
       stroke-linecap="round"
       stroke-linejoin="round"
       stroke="#000000"
       stroke-opacity="1"
       stroke-miterlimit="10"
       d="m 118.50715,173.25385 v 2.096"
       id="path14" />
    <path
       fill="none"
       stroke-width="0.264583"
       stroke-linecap="round"
       stroke-linejoin="round"
       stroke="#000000"
       stroke-opacity="1"
       stroke-miterlimit="10"
       d="m 131.84243,173.25385 v 2.096"
       id="path15" />
    <g
       fill="#000000"
       fill-opacity="1"
       id="g16"
       transform="matrix(0.35277777,0,0,0.35277777,69.167871,105.43646)">
      <g
         id="use15"
         transform="translate(20.76,213.62)">
        <path
           d="m 5.546875,-2.953125 v 0.8125 h -5.09375 v -0.8125 z m 0,0"
           id="path7" />
      </g>
      <g
         id="use16"
         transform="translate(26.6,213.62)">
        <path
           d="m 3.3125,-2.46875 v -3.171875 l -2.25,3.171875 z M 3.328125,0 V -1.703125 H 0.25 V -2.5625 l 3.203125,-4.453125 h 0.75 v 4.546875 h 1.03125 v 0.765625 H 4.203125 V 0 Z m 0,0"
           id="path5" />
      </g>
    </g>
    <g
       fill="#000000"
       fill-opacity="1"
       id="g18"
       transform="matrix(0.35277777,0,0,0.35277777,69.167871,105.43646)">
      <g
         id="use17"
         transform="translate(58.560001,213.62)">
        <path
           d="m 5.546875,-2.953125 v 0.8125 h -5.09375 v -0.8125 z m 0,0"
           id="path8" />
      </g>
      <g
         id="use18"
         transform="translate(64.400002,213.62)">
        <path
           d="m 0.3125,0 c 0.03125,-0.601562 0.15625,-1.125 0.375,-1.5625 0.21875,-0.445312 0.640625,-0.851562 1.265625,-1.21875 l 0.9375,-0.546875 c 0.414063,-0.25 0.710937,-0.457031 0.890625,-0.625 0.257812,-0.269531 0.390625,-0.582031 0.390625,-0.9375 0,-0.40625 -0.125,-0.726563 -0.375,-0.96875 -0.242187,-0.238281 -0.5625,-0.359375 -0.96875,-0.359375 -0.605469,0 -1.023437,0.230469 -1.25,0.6875 -0.125,0.25 -0.195313,0.589844 -0.203125,1.015625 H 0.484375 C 0.492188,-5.117188 0.609375,-5.613281 0.828125,-6 1.203125,-6.675781 1.875,-7.015625 2.84375,-7.015625 c 0.789062,0 1.367188,0.21875 1.734375,0.65625 0.375,0.429687 0.5625,0.90625 0.5625,1.4375 0,0.5625 -0.195313,1.042969 -0.578125,1.4375 -0.230469,0.230469 -0.640625,0.511719 -1.234375,0.84375 L 2.65625,-2.28125 c -0.3125,0.179688 -0.5625,0.351562 -0.75,0.515625 -0.324219,0.28125 -0.527344,0.59375 -0.609375,0.9375 h 3.8125 V 0 Z m 0,0"
           id="path16" />
      </g>
    </g>
    <g
       fill="#000000"
       fill-opacity="1"
       id="g19"
       transform="matrix(0.35277777,0,0,0.35277777,69.167871,105.43646)">
      <g
         id="use19"
         transform="translate(99.279999,213.62)">
        <path
           d="m 2.703125,-7 c 0.90625,0 1.5625,0.375 1.96875,1.125 0.3125,0.574219 0.46875,1.367188 0.46875,2.375 C 5.140625,-2.550781 5,-1.765625 4.71875,-1.140625 4.300781,-0.253906 3.628906,0.1875 2.703125,0.1875 c -0.84375,0 -1.46875,-0.363281 -1.875,-1.09375 C 0.484375,-1.507812 0.3125,-2.328125 0.3125,-3.359375 0.3125,-4.148438 0.414062,-4.832031 0.625,-5.40625 1.007812,-6.46875 1.703125,-7 2.703125,-7 Z m 0,6.390625 c 0.445313,0 0.804687,-0.203125 1.078125,-0.609375 0.269531,-0.40625 0.40625,-1.15625 0.40625,-2.25 0,-0.789062 -0.101562,-1.441406 -0.296875,-1.953125 -0.1875,-0.519531 -0.5625,-0.78125 -1.125,-0.78125 -0.523437,0 -0.902344,0.246094 -1.140625,0.734375 -0.242188,0.492188 -0.359375,1.203125 -0.359375,2.140625 0,0.71875 0.078125,1.292969 0.234375,1.71875 0.226562,0.667969 0.628906,1 1.203125,1 z m 0,0"
           id="path9" />
      </g>
    </g>
    <g
       fill="#000000"
       fill-opacity="1"
       id="g20"
       transform="matrix(0.35277777,0,0,0.35277777,69.167871,105.43646)">
      <g
         id="use20"
         transform="translate(137.08,213.62)">
        <path
           d="m 0.3125,0 c 0.03125,-0.601562 0.15625,-1.125 0.375,-1.5625 0.21875,-0.445312 0.640625,-0.851562 1.265625,-1.21875 l 0.9375,-0.546875 c 0.414063,-0.25 0.710937,-0.457031 0.890625,-0.625 0.257812,-0.269531 0.390625,-0.582031 0.390625,-0.9375 0,-0.40625 -0.125,-0.726563 -0.375,-0.96875 -0.242187,-0.238281 -0.5625,-0.359375 -0.96875,-0.359375 -0.605469,0 -1.023437,0.230469 -1.25,0.6875 -0.125,0.25 -0.195313,0.589844 -0.203125,1.015625 H 0.484375 C 0.492188,-5.117188 0.609375,-5.613281 0.828125,-6 1.203125,-6.675781 1.875,-7.015625 2.84375,-7.015625 c 0.789062,0 1.367188,0.21875 1.734375,0.65625 0.375,0.429687 0.5625,0.90625 0.5625,1.4375 0,0.5625 -0.195313,1.042969 -0.578125,1.4375 -0.230469,0.230469 -0.640625,0.511719 -1.234375,0.84375 L 2.65625,-2.28125 c -0.3125,0.179688 -0.5625,0.351562 -0.75,0.515625 -0.324219,0.28125 -0.527344,0.59375 -0.609375,0.9375 h 3.8125 V 0 Z m 0,0"
           id="path17" />
      </g>
    </g>
    <g
       fill="#000000"
       fill-opacity="1"
       id="g21"
       transform="matrix(0.35277777,0,0,0.35277777,69.167871,105.43646)">
      <g
         id="use21"
         transform="translate(174.88,213.62)">
        <path
           d="m 3.3125,-2.46875 v -3.171875 l -2.25,3.171875 z M 3.328125,0 V -1.703125 H 0.25 V -2.5625 l 3.203125,-4.453125 h 0.75 v 4.546875 h 1.03125 v 0.765625 H 4.203125 V 0 Z m 0,0"
           id="path6" />
      </g>
    </g>
    <path
       fill-rule="nonzero"
       fill="#009e73"
       fill-opacity="1"
       stroke-width="0.264583"
       stroke-linecap="round"
       stroke-linejoin="round"
       stroke="#000000"
       stroke-opacity="1"
       stroke-miterlimit="10"
       d="m 71.834375,171.05313 h 3.511241 v -0.0207 h -3.511241 z m 0,0"
       id="path21" />
    <path
       fill-rule="nonzero"
       fill="#009e73"
       fill-opacity="1"
       stroke-width="0.264583"
       stroke-linecap="round"
       stroke-linejoin="round"
       stroke="#000000"
       stroke-opacity="1"
       stroke-miterlimit="10"
       d="m 75.345616,171.05313 h 3.509863 v -0.20809 h -3.509863 z m 0,0"
       id="path22" />
    <path
       fill-rule="nonzero"
       fill="#009e73"
       fill-opacity="1"
       stroke-width="0.264583"
       stroke-linecap="round"
       stroke-linejoin="round"
       stroke="#000000"
       stroke-opacity="1"
       stroke-miterlimit="10"
       d="m 78.851345,171.05313 h 3.509864 v -1.58061 h -3.509864 z m 0,0"
       id="path23" />
    <path
       fill-rule="nonzero"
       fill="#009e73"
       fill-opacity="1"
       stroke-width="0.264583"
       stroke-linecap="round"
       stroke-linejoin="round"
       stroke="#000000"
       stroke-opacity="1"
       stroke-miterlimit="10"
       d="m 82.361209,171.05313 h 3.51124 v -7.31325 h -3.51124 z m 0,0"
       id="path24" />
    <path
       fill-rule="nonzero"
       fill="#009e73"
       fill-opacity="1"
       stroke-width="0.264583"
       stroke-linecap="round"
       stroke-linejoin="round"
       stroke="#000000"
       stroke-opacity="1"
       stroke-miterlimit="10"
       d="m 85.872449,171.05313 h 3.509864 v -21.79505 h -3.509864 z m 0,0"
       id="path25" />
    <path
       fill-rule="nonzero"
       fill="#009e73"
       fill-opacity="1"
       stroke-width="0.264583"
       stroke-linecap="round"
       stroke-linejoin="round"
       stroke="#000000"
       stroke-opacity="1"
       stroke-miterlimit="10"
       d="m 89.382313,171.05313 h 3.509863 v -41.99847 h -3.509863 z m 0,0"
       id="path26" />
    <path
       fill-rule="nonzero"
       fill="#009e73"
       fill-opacity="1"
       stroke-width="0.264583"
       stroke-linecap="round"
       stroke-linejoin="round"
       stroke="#000000"
       stroke-opacity="1"
       stroke-miterlimit="10"
       d="m 92.888042,171.05313 h 3.511241 v -55.03334 h -3.511241 z m 0,0"
       id="path27" />
    <path
       fill-rule="nonzero"
       fill="#009e73"
       fill-opacity="1"
       stroke-width="0.264583"
       stroke-linecap="round"
       stroke-linejoin="round"
       stroke="#000000"
       stroke-opacity="1"
       stroke-miterlimit="10"
       d="m 96.399283,171.05313 h 3.509863 v -49.45228 h -3.509863 z m 0,0"
       id="path28" />
    <path
       fill-rule="nonzero"
       fill="#009e73"
       fill-opacity="1"
       stroke-width="0.264583"
       stroke-linecap="round"
       stroke-linejoin="round"
       stroke="#000000"
       stroke-opacity="1"
       stroke-miterlimit="10"
       d="m 99.909146,171.05313 h 3.509864 v -27.10326 h -3.509864 z m 0,0"
       id="path29" />
    <path
       fill-rule="nonzero"
       fill="#009e73"
       fill-opacity="1"
       stroke-width="0.264583"
       stroke-linecap="round"
       stroke-linejoin="round"
       stroke="#000000"
       stroke-opacity="1"
       stroke-miterlimit="10"
       d="m 103.41901,171.05313 h 3.50986 v -10.22367 h -3.50986 z m 0,0"
       id="path30" />
    <path
       fill-rule="nonzero"
       fill="#009e73"
       fill-opacity="1"
       stroke-width="0.264583"
       stroke-linecap="round"
       stroke-linejoin="round"
       stroke="#000000"
       stroke-opacity="1"
       stroke-miterlimit="10"
       d="m 106.92612,171.05313 h 3.50986 v -2.79053 h -3.50986 z m 0,0"
       id="path31" />
    <path
       fill-rule="nonzero"
       fill="#009e73"
       fill-opacity="1"
       stroke-width="0.264583"
       stroke-linecap="round"
       stroke-linejoin="round"
       stroke="#000000"
       stroke-opacity="1"
       stroke-miterlimit="10"
       d="m 110.43598,171.05313 h 3.50986 v -0.40239 h -3.50986 z m 0,0"
       id="path32" />
    <path
       fill-rule="nonzero"
       fill="#009e73"
       fill-opacity="1"
       stroke-width="0.264583"
       stroke-linecap="round"
       stroke-linejoin="round"
       stroke="#000000"
       stroke-opacity="1"
       stroke-miterlimit="10"
       d="m 113.94584,171.05313 h 3.50987 v -0.0317 h -3.50987 z m 0,0"
       id="path33" />
    <path
       fill="none"
       stroke-width="0.264583"
       stroke-linecap="round"
       stroke-linejoin="round"
       stroke="#000000"
       stroke-opacity="1"
       stroke-miterlimit="10"
       d="m 117.45571,171.05313 h 3.50986 z m 0,0"
       id="path34" />
    <path
       fill="none"
       stroke-width="0.264583"
       stroke-linecap="round"
       stroke-linejoin="round"
       stroke="#000000"
       stroke-opacity="1"
       stroke-miterlimit="10"
       d="m 120.96281,171.05313 h 3.50987 z m 0,0"
       id="path35" />
    <path
       fill="none"
       stroke-width="0.264583"
       stroke-linecap="round"
       stroke-linejoin="round"
       stroke="#000000"
       stroke-opacity="1"
       stroke-miterlimit="10"
       d="m 124.47268,171.05313 h 3.50986 z m 0,0"
       id="path36" />
    <path
       fill="none"
       stroke-width="0.264583"
       stroke-linecap="round"
       stroke-linejoin="round"
       stroke="#000000"
       stroke-opacity="1"
       stroke-miterlimit="10"
       d="m 127.98254,171.05313 h 3.51124 z m 0,0"
       id="path37" />
    <path
       fill="none"
       stroke-width="0.264583"
       stroke-linecap="round"
       stroke-linejoin="round"
       stroke="#000000"
       stroke-opacity="1"
       stroke-miterlimit="10"
       d="m 131.49378,171.05313 h 3.50986 z m 0,0"
       id="path38" />
    <path
       fill="none"
       stroke-width="0.264583"
       stroke-linecap="round"
       stroke-linejoin="round"
       stroke="#000000"
       stroke-opacity="1"
       stroke-miterlimit="10"
       d="m 134.99951,171.05313 h 3.50986 z m 0,0"
       id="path39" />
  </g>
</svg>
