<?xml version="1.0" encoding="UTF-8" standalone="no"?>
<!-- Created with Inkscape (http://www.inkscape.org/) -->

<svg
   width="86.640022mm"
   height="59.864731mm"
   viewBox="0 0 86.640022 59.864731"
   version="1.1"
   id="svg1"
   inkscape:version="1.3.2 (091e20e, 2023-11-25)"
   sodipodi:docname="slack.svg"
   xmlns:inkscape="http://www.inkscape.org/namespaces/inkscape"
   xmlns:sodipodi="http://sodipodi.sourceforge.net/DTD/sodipodi-0.dtd"
   xmlns="http://www.w3.org/2000/svg"
   xmlns:svg="http://www.w3.org/2000/svg">
  <sodipodi:namedview
     id="namedview1"
     pagecolor="#ffffff"
     bordercolor="#000000"
     borderopacity="0.25"
     inkscape:showpageshadow="2"
     inkscape:pageopacity="0.0"
     inkscape:pagecheckerboard="0"
     inkscape:deskcolor="#d1d1d1"
     inkscape:document-units="mm"
     inkscape:zoom="1.6819304"
     inkscape:cx="191.74396"
     inkscape:cy="114.15454"
     inkscape:window-width="1512"
     inkscape:window-height="833"
     inkscape:window-x="0"
     inkscape:window-y="38"
     inkscape:window-maximized="1"
     inkscape:current-layer="layer1" />
  <defs
     id="defs1">
    <clipPath
       id="clip-13">
      <path
         clip-rule="nonzero"
         d="m 236.51953,606 h 3.42188 v 6 h -3.42188 z m 0,0"
         id="path174" />
    </clipPath>
    <clipPath
       id="clip-14">
      <path
         clip-rule="nonzero"
         d="m 229.55859,599 h 6.90235 v 11.92187 h -6.90235 z m 0,0"
         id="path175" />
    </clipPath>
    <clipPath
       id="clip-15">
      <path
         clip-rule="nonzero"
         d="m 315.71875,614 h 6.90234 v 11.73828 h -6.90234 z m 0,0"
         id="path176" />
    </clipPath>
    <clipPath
       id="clip-15-7">
      <path
         clip-rule="nonzero"
         d="m 315.71875,614 h 6.90234 v 11.73828 h -6.90234 z m 0,0"
         id="path176-2" />
    </clipPath>
  </defs>
  <g
     inkscape:label="Layer 1"
     inkscape:groupmode="layer"
     id="layer1"
     transform="translate(-40.745832,-121.70834)">
    <path
       fill="none"
       stroke-width="0.264583"
       stroke-linecap="round"
       stroke-linejoin="round"
       stroke="#000000"
       stroke-opacity="1"
       stroke-dasharray="2.25, 3"
       stroke-miterlimit="10"
       d="m 81.264288,144.48455 10.160274,15.40922 m -24.68066,-10.16027 3.682118,6.03305"
       id="path1124" />
    <path
       fill-rule="nonzero"
       fill="#ff0000"
       fill-opacity="1"
       d="m 86.852235,138.17727 h 3.365168 v -3.47129 h -3.365168 z m 0,0"
       id="path1125"
       style="stroke-width:0.352778" />
    <path
       fill="none"
       stroke-width="0.264583"
       stroke-linecap="round"
       stroke-linejoin="miter"
       stroke="#ff0000"
       stroke-opacity="1"
       stroke-miterlimit="8"
       d="m 90.217403,134.70599 h -3.365168 v 3.47128 h 3.365168 z m -3.365168,0 z m 0,0"
       id="path1126" />
    <path
       fill-rule="nonzero"
       fill="#ff0000"
       fill-opacity="1"
       d="m 59.801344,138.17727 h 3.385842 v -3.47129 h -3.385842 z m 0,0"
       id="path1127"
       style="stroke-width:0.352778" />
    <path
       fill="none"
       stroke-width="0.264583"
       stroke-linecap="round"
       stroke-linejoin="miter"
       stroke="#ff0000"
       stroke-opacity="1"
       stroke-miterlimit="8"
       d="m 63.187186,134.70599 h -3.385842 v 3.47128 h 3.385842 z m -3.385842,0 z m 0,0"
       id="path1128" />
    <path
       fill-rule="nonzero"
       fill="#ff0000"
       fill-opacity="1"
       d="m 48.985122,161.54466 h 3.385841 v -3.47128 h -3.385841 z m 0,0"
       id="path1129"
       style="stroke-width:0.352778" />
    <path
       fill="none"
       stroke-width="0.264583"
       stroke-linecap="round"
       stroke-linejoin="miter"
       stroke="#ff0000"
       stroke-opacity="1"
       stroke-miterlimit="8"
       d="m 52.370963,158.07338 h -3.385841 v 3.47128 h 3.385841 z m -3.385841,0 z m 0,0"
       id="path1130" />
    <path
       fill="none"
       stroke-width="0.264583"
       stroke-linecap="round"
       stroke-linejoin="round"
       stroke="#000000"
       stroke-opacity="1"
       stroke-miterlimit="10"
       d="M 48.985122,173.6521 119.27885,129.51905"
       id="path1131" />
    <path
       fill-rule="evenodd"
       fill="#0000ff"
       fill-opacity="1"
       d="m 80.057128,165.86205 c -0.740008,0 -1.332565,0.59393 -1.332565,1.29122 0,0.72072 0.592557,1.31327 1.332565,1.31327 0.762053,0 1.35461,-0.59255 1.35461,-1.31327 0,-0.69729 -0.592557,-1.29122 -1.35461,-1.29122"
       id="path1132"
       style="stroke-width:0.352778" />
    <path
       fill="none"
       stroke-width="0.264583"
       stroke-linecap="round"
       stroke-linejoin="round"
       stroke="#0000ff"
       stroke-opacity="1"
       stroke-miterlimit="10"
       d="m 80.057128,165.86205 c -0.740008,0 -1.332565,0.59394 -1.332565,1.29123 0,0.72071 0.592557,1.31327 1.332565,1.31327 0.762053,0 1.35461,-0.59256 1.35461,-1.31327 0,-0.69729 -0.592557,-1.29123 -1.35461,-1.29123 z m 0,0"
       id="path1133" />
    <path
       fill-rule="evenodd"
       fill="#0000ff"
       fill-opacity="1"
       d="m 120.63346,155.44822 c -0.74001,0 -1.35461,0.59255 -1.35461,1.31327 0,0.71933 0.6146,1.31189 1.35461,1.31189 0.74138,0 1.35461,-0.59256 1.35461,-1.31189 0,-0.72072 -0.61323,-1.31327 -1.35461,-1.31327"
       id="path1134"
       style="stroke-width:0.352778" />
    <path
       fill="none"
       stroke-width="0.264583"
       stroke-linecap="round"
       stroke-linejoin="round"
       stroke="#0000ff"
       stroke-opacity="1"
       stroke-miterlimit="10"
       d="m 120.63346,155.44822 c -0.74001,0 -1.35461,0.59256 -1.35461,1.31327 0,0.71934 0.6146,1.31189 1.35461,1.31189 0.74138,0 1.35461,-0.59255 1.35461,-1.31189 0,-0.72071 -0.61323,-1.31327 -1.35461,-1.31327 z m 0,0"
       id="path1135" />
    <path
       fill-rule="nonzero"
       fill="#ff0000"
       fill-opacity="1"
       d="m 69.431073,158.22083 h 3.387221 v -3.49195 h -3.387221 z m 0,0"
       id="path1136"
       style="stroke-width:0.352778" />
    <path
       fill="none"
       stroke-width="0.264583"
       stroke-linecap="round"
       stroke-linejoin="miter"
       stroke="#ff0000"
       stroke-opacity="1"
       stroke-miterlimit="8"
       d="m 72.818294,154.72889 h -3.387221 v 3.47127 h 3.387221 z m -3.387221,0 z m 0,0"
       id="path1137" />
    <path
       fill="none"
       stroke-width="0.264583"
       stroke-linecap="round"
       stroke-linejoin="round"
       stroke="#000000"
       stroke-opacity="1"
       stroke-dasharray="2.25, 3"
       stroke-miterlimit="10"
       d="M 40.878123,165.86205 111.15118,121.70834 M 57.112793,181.44078 127.38585,137.28705"
       id="path1138" />
    <path
       fill-rule="evenodd"
       fill="#0000ff"
       fill-opacity="1"
       d="m 80.819181,142.98111 c -0.740005,0 -1.35461,0.59255 -1.35461,1.31327 0,0.71933 0.614605,1.31189 1.35461,1.31189 0.741387,0 1.354614,-0.59256 1.354614,-1.31189 0,-0.72072 -0.613227,-1.31327 -1.354614,-1.31327"
       id="path1139"
       style="stroke-width:0.352778" />
    <path
       fill="none"
       stroke-width="0.264583"
       stroke-linecap="round"
       stroke-linejoin="round"
       stroke="#0000ff"
       stroke-opacity="1"
       stroke-miterlimit="10"
       d="m 80.819181,142.98111 c -0.740005,0 -1.35461,0.59255 -1.35461,1.31327 0,0.71934 0.614605,1.31189 1.35461,1.31189 0.741387,0 1.354614,-0.59255 1.354614,-1.31189 0,-0.72072 -0.613227,-1.31327 -1.354614,-1.31327 z m 0,0"
       id="path1140" />
    <path
       fill="none"
       stroke-width="0.264583"
       stroke-linecap="round"
       stroke-linejoin="round"
       stroke="#000000"
       stroke-opacity="1"
       stroke-miterlimit="10"
       d="m 80.079176,163.25894 c -2.244823,0 -4.065213,1.73633 -4.065213,3.89434 0,2.15938 1.82039,3.89571 4.065213,3.89571 2.243445,0 4.041786,-1.73633 4.041786,-3.89571 0,-2.15801 -1.798341,-3.89434 -4.041786,-3.89434 z m 8.10562,-31.15744 c -2.243444,0 -4.063834,1.757 -4.063834,3.89434 0,2.15938 1.82039,3.89571 4.063834,3.89571 2.244824,0 4.065214,-1.73633 4.065214,-3.89571 0,-2.13734 -1.82039,-3.89434 -4.065214,-3.89434 z m -37.845061,23.34672 c -2.243448,0 -4.063834,1.757 -4.063834,3.91638 0,2.13734 1.820386,3.89434 4.063834,3.89434 2.243445,0 4.043162,-1.757 4.043162,-3.89434 0,-2.15938 -1.799717,-3.91638 -4.043162,-3.91638 z m 0,0"
       id="path1141" />
    <g
       fill="#000000"
       fill-opacity="1"
       id="g1141"
       transform="matrix(0.35277777,0,0,0.35277777,-23.553428,-67.055337)">
      <g
         id="use1141"
         transform="translate(253.32001,608.28003)">
        <path
           d="M 1.40625,-7.171875 3.34375,-8.125 h 0.1875 v 6.71875 c 0,0.449219 0.019531,0.730469 0.0625,0.84375 0.039062,0.105469 0.117188,0.1875 0.234375,0.25 0.113281,0.054688 0.351563,0.085938 0.71875,0.09375 V 0 h -3 v -0.21875 c 0.375,-0.007812 0.613281,-0.039062 0.71875,-0.09375 C 2.378906,-0.375 2.457031,-0.453125 2.5,-0.546875 2.539062,-0.640625 2.5625,-0.925781 2.5625,-1.40625 V -5.703125 C 2.5625,-6.273438 2.546875,-6.644531 2.515625,-6.8125 2.484375,-6.9375 2.429688,-7.023438 2.359375,-7.078125 2.285156,-7.140625 2.195312,-7.171875 2.09375,-7.171875 1.957031,-7.171875 1.757812,-7.113281 1.5,-7 Z m 0,0"
           id="path87" />
      </g>
    </g>
    <g
       fill="#000000"
       fill-opacity="1"
       id="g1142"
       transform="matrix(0.35277777,0,0,0.35277777,-23.553428,-67.055337)">
      <g
         id="use1142"
         transform="translate(211.55586,608.28003)">
        <path
           d="m 0.4375,-3.9375 c 0,-0.90625 0.132812,-1.679688 0.40625,-2.328125 0.269531,-0.65625 0.632812,-1.144531 1.09375,-1.46875 C 2.289062,-7.992188 2.65625,-8.125 3.03125,-8.125 c 0.601562,0 1.148438,0.3125 1.640625,0.9375 0.601563,0.773438 0.90625,1.820312 0.90625,3.140625 0,0.917969 -0.136719,1.699219 -0.40625,2.34375 -0.261719,0.648437 -0.601563,1.117187 -1.015625,1.40625 -0.40625,0.29296875 -0.804688,0.4375 -1.1875,0.4375 -0.761719,0 -1.390625,-0.445313 -1.890625,-1.34375 C 0.648438,-1.953125 0.4375,-2.863281 0.4375,-3.9375 Z m 1.140625,0.15625 c 0,1.09375 0.132813,1.984375 0.40625,2.671875 0.226563,0.585937 0.5625,0.875 1,0.875 0.207031,0 0.425781,-0.09375 0.65625,-0.28125 0.226563,-0.1875 0.398437,-0.503906 0.515625,-0.953125 0.175781,-0.664062 0.265625,-1.613281 0.265625,-2.84375 0,-0.90625 -0.09375,-1.660156 -0.28125,-2.265625 -0.136719,-0.445313 -0.3125,-0.769531 -0.53125,-0.96875 -0.167969,-0.125 -0.367187,-0.1875 -0.59375,-0.1875 -0.261719,0 -0.496094,0.121094 -0.703125,0.359375 -0.28125,0.324219 -0.476562,0.835938 -0.578125,1.53125 -0.105469,0.699219 -0.15625,1.386719 -0.15625,2.0625 z m 0,0"
           id="path109" />
      </g>
    </g>
    <g
       fill="#000000"
       fill-opacity="1"
       id="g1143"
       transform="matrix(0.35277777,0,0,0.35277777,-23.553428,-67.055337)">
      <g
         id="use1143"
         transform="translate(244.92,608.28003)">
        <path
           d="m 0.359375,0 v -0.640625 l 4.9375,-2.4375 -4.9375,-2.453125 v -0.625 L 6.25,-3.234375 V -2.9375 Z m 0,0"
           id="path82" />
      </g>
    </g>
    <g
       fill="#000000"
       fill-opacity="1"
       id="g1144"
       transform="matrix(0.35277777,0,0,0.35277777,-23.553428,-67.055337)">
      <g
         id="use1144"
         transform="translate(220.5589,608.28003)">
        <path
           d="m 0.359375,0 v -0.640625 l 4.9375,-2.4375 -4.9375,-2.453125 v -0.625 L 6.25,-3.234375 V -2.9375 Z m 0,0"
           id="path83" />
      </g>
    </g>
    <g
       clip-path="url(#clip-13)"
       id="g1146"
       transform="matrix(0.35277777,0,0,0.35277777,-23.553428,-67.055337)">
      <g
         fill="#000000"
         fill-opacity="1"
         id="g1145">
        <g
           id="use1145"
           transform="translate(236.52,611.28003)">
          <path
             d="M 2,-4.84375 1.03125,-1.5 1.421875,-1.828125 C 1.835938,-2.179688 2.113281,-2.445312 2.25,-2.625 2.289062,-2.6875 2.3125,-2.726562 2.3125,-2.75 2.3125,-2.769531 2.300781,-2.789062 2.28125,-2.8125 2.269531,-2.832031 2.242188,-2.847656 2.203125,-2.859375 2.160156,-2.867188 2.09375,-2.875 2,-2.875 H 1.875 L 1.921875,-3 H 3.40625 L 3.375,-2.875 C 3.195312,-2.863281 3.046875,-2.835938 2.921875,-2.796875 2.804688,-2.753906 2.6875,-2.6875 2.5625,-2.59375 2.332031,-2.425781 2.179688,-2.3125 2.109375,-2.25 l -0.28125,0.265625 c 0.039063,0.167969 0.097656,0.398437 0.171875,0.6875 0.125,0.492187 0.207031,0.777344 0.25,0.859375 0.050781,0.09375 0.097656,0.140625 0.140625,0.140625 0.039063,0 0.085937,-0.019531 0.140625,-0.0625 0.113281,-0.082031 0.238281,-0.21875 0.375,-0.40625 L 3.015625,-0.6875 C 2.773438,-0.375 2.585938,-0.164062 2.453125,-0.0625 2.316406,0.03125 2.195312,0.078125 2.09375,0.078125 2,0.078125 1.925781,0.0390625 1.875,-0.03125 1.78125,-0.164062 1.628906,-0.691406 1.421875,-1.609375 L 0.953125,-1.203125 0.59375,0 H 0.0625 L 1.203125,-3.890625 1.296875,-4.21875 C 1.304688,-4.28125 1.3125,-4.332031 1.3125,-4.375 1.3125,-4.425781 1.289062,-4.46875 1.25,-4.5 1.207031,-4.539062 1.144531,-4.5625 1.0625,-4.5625 c -0.054688,0 -0.136719,0.011719 -0.25,0.03125 v -0.109375 z m 0,0"
             id="path81" />
        </g>
      </g>
    </g>
    <g
       clip-path="url(#clip-14)"
       id="g1148"
       transform="matrix(0.35277777,0,0,0.35277777,-23.553428,-67.055337)">
      <g
         fill="#000000"
         fill-opacity="1"
         id="g1147">
        <g
           id="use1146"
           transform="translate(229.56,608.28003)">
          <path
             d="M 4.859375,-8.328125 4.796875,-8.125 c -0.242187,0.042969 -0.417969,0.109375 -0.53125,0.203125 -0.117187,0.085937 -0.199219,0.195313 -0.25,0.328125 -0.054687,0.167969 -0.042969,0.304688 0.03125,0.40625 0.070313,0.105469 0.234375,0.164062 0.484375,0.171875 0.5625,-0.382813 1.007812,-0.648437 1.34375,-0.796875 0.332031,-0.15625 0.601562,-0.234375 0.8125,-0.234375 0.101562,0 0.175781,0.03125 0.21875,0.09375 0.050781,0.0625 0.0625,0.136719 0.03125,0.21875 -0.0625,0.199219 -0.226562,0.375 -0.484375,0.53125 -0.429687,0.242187 -1.023437,0.398437 -1.78125,0.46875 -0.523437,0.355469 -0.84375,0.714844 -0.96875,1.078125 -0.125,0.367188 0.03125,0.652344 0.46875,0.859375 0.4375,-0.15625 0.816406,-0.269531 1.140625,-0.34375 C 5.632812,-5.210938 5.898438,-5.25 6.109375,-5.25 c 0.1875,0 0.304687,0.039062 0.359375,0.109375 0.0625,0.0625 0.078125,0.148437 0.046875,0.25 -0.042969,0.136719 -0.148437,0.25 -0.3125,0.34375 C 5.890625,-4.390625 5.488281,-4.3125 5,-4.3125 4.863281,-4.3125 4.71875,-4.316406 4.5625,-4.328125 4.414062,-4.347656 4.257812,-4.375 4.09375,-4.40625 c -0.542969,0.199219 -1.027344,0.5 -1.453125,0.90625 -0.429687,0.398438 -0.71875,0.8125 -0.875,1.25 -0.105469,0.324219 -0.117187,0.59375 -0.03125,0.8125 0.082031,0.210938 0.226563,0.355469 0.4375,0.4375 0.125,0.054688 0.335937,0.078125 0.640625,0.078125 0.3125,0 0.628906,-0.007813 0.953125,-0.03125 C 4.191406,-0.984375 4.472656,-1 4.609375,-1 c 0.375,0 0.644531,0.136719 0.8125,0.40625 C 5.578125,-0.3125 5.570312,0.0703125 5.40625,0.5625 5.1875,1.1875 4.84375,1.679688 4.375,2.046875 3.90625,2.410156 3.414062,2.59375 2.90625,2.59375 2.632812,2.59375 2.445312,2.535156 2.34375,2.421875 2.238281,2.316406 2.210938,2.203125 2.265625,2.078125 2.296875,1.972656 2.363281,1.882812 2.46875,1.8125 2.570312,1.738281 2.679688,1.703125 2.796875,1.703125 c 0.082031,0 0.21875,0.023437 0.40625,0.078125 0.1875,0.050781 0.328125,0.078125 0.421875,0.078125 0.257812,0 0.507812,-0.089844 0.75,-0.265625 C 4.613281,1.414062 4.785156,1.179688 4.890625,0.890625 4.960938,0.648438 4.953125,0.457031 4.859375,0.3125 4.765625,0.164062 4.617188,0.09375 4.421875,0.09375 c -0.117187,0 -0.3125,0.015625 -0.59375,0.046875 C 3.554688,0.171875 3.296875,0.1875 3.046875,0.1875 2.421875,0.1875 1.96875,0.113281 1.6875,-0.03125 1.414062,-0.1875 1.226562,-0.441406 1.125,-0.796875 1.03125,-1.148438 1.0625,-1.550781 1.21875,-2 1.382812,-2.476562 1.671875,-2.945312 2.078125,-3.40625 2.484375,-3.875 3.019531,-4.265625 3.6875,-4.578125 3.28125,-4.890625 3.148438,-5.25 3.296875,-5.65625 3.410156,-6 3.691406,-6.351562 4.140625,-6.71875 3.878906,-6.789062 3.703125,-6.90625 3.609375,-7.0625 3.523438,-7.21875 3.515625,-7.390625 3.578125,-7.578125 c 0.0625,-0.195313 0.191406,-0.363281 0.390625,-0.5 0.207031,-0.144531 0.503906,-0.226563 0.890625,-0.25 z m 0,0"
             id="path84" />
        </g>
      </g>
    </g>
    <g
       fill="#000000"
       fill-opacity="1"
       id="g1149"
       transform="matrix(0.35277777,0,0,0.35277777,-23.553428,-67.055337)">
      <g
         id="use1148"
         transform="translate(339.35999,623.09991)">
        <path
           d="M 1.40625,-7.171875 3.34375,-8.125 h 0.1875 v 6.71875 c 0,0.449219 0.019531,0.730469 0.0625,0.84375 0.039062,0.105469 0.117188,0.1875 0.234375,0.25 0.113281,0.054688 0.351563,0.085938 0.71875,0.09375 V 0 h -3 v -0.21875 c 0.375,-0.007812 0.613281,-0.039062 0.71875,-0.09375 C 2.378906,-0.375 2.457031,-0.453125 2.5,-0.546875 2.539062,-0.640625 2.5625,-0.925781 2.5625,-1.40625 V -5.703125 C 2.5625,-6.273438 2.546875,-6.644531 2.515625,-6.8125 2.484375,-6.9375 2.429688,-7.023438 2.359375,-7.078125 2.285156,-7.140625 2.195312,-7.171875 2.09375,-7.171875 1.957031,-7.171875 1.757812,-7.113281 1.5,-7 Z m 0,0"
           id="path80" />
      </g>
    </g>
    <g
       fill="#000000"
       fill-opacity="1"
       id="g1150"
       transform="matrix(0.35277777,0,0,0.35277777,-23.553428,-67.055337)">
      <g
         id="use1149"
         transform="translate(330.96332,623.09991)">
        <path
           d="m 0.359375,0 v -0.640625 l 4.9375,-2.4375 -4.9375,-2.453125 v -0.625 L 6.25,-3.234375 V -2.9375 Z m 0,0"
           id="path79" />
      </g>
    </g>
    <g
       fill="#000000"
       fill-opacity="1"
       id="g1151"
       transform="matrix(0.35277777,0,0,0.35277777,-23.553428,-67.055337)">
      <g
         id="use1150"
         transform="translate(323.94,626.09991)">
        <path
           d="m 1.59375,-4.453125 c 0.101562,0 0.1875,0.039063 0.25,0.109375 0.070312,0.0625 0.109375,0.140625 0.109375,0.234375 0,0.105469 -0.039063,0.195313 -0.109375,0.265625 C 1.78125,-3.78125 1.695312,-3.75 1.59375,-3.75 1.5,-3.75 1.414062,-3.78125 1.34375,-3.84375 1.28125,-3.914062 1.25,-4.003906 1.25,-4.109375 1.25,-4.203125 1.28125,-4.28125 1.34375,-4.34375 1.414062,-4.414062 1.5,-4.453125 1.59375,-4.453125 Z m 0.0625,1.359375 -0.890625,3.0625 c -0.15625,0.539062 -0.375,0.929688 -0.65625,1.171875 -0.269531,0.25 -0.5625,0.375 -0.875,0.375 -0.144531,0 -0.253906,-0.039063 -0.328125,-0.109375 -0.070312,-0.0625 -0.109375,-0.140625 -0.109375,-0.234375 0,-0.074219 0.03125,-0.136719 0.09375,-0.1875 0.054687,-0.054687 0.117187,-0.078125 0.1875,-0.078125 0.0625,0 0.121094,0.019531 0.171875,0.0625 0.042969,0.039062 0.0625,0.082031 0.0625,0.125 0,0.050781 -0.03125,0.101562 -0.09375,0.15625 -0.03125,0.019531 -0.046875,0.039062 -0.046875,0.0625 L -0.8125,1.328125 c 0,0.00781 0.011719,0.015625 0.03125,0.015625 0.011719,0 0.027344,0 0.046875,0 0.1875,0 0.351563,-0.058594 0.484375,-0.171875 0.125,-0.117187 0.2421875,-0.351563 0.34375,-0.703125 l 0.765625,-2.625 C 0.929688,-2.414062 0.96875,-2.554688 0.96875,-2.578125 0.96875,-2.628906 0.941406,-2.675781 0.890625,-2.71875 0.847656,-2.769531 0.789062,-2.796875 0.71875,-2.796875 c -0.03125,0 -0.070312,0.00781 -0.109375,0.015625 -0.03125,0 -0.074219,0.00781 -0.125,0.015625 V -2.875 Z m 0,0"
           id="path78" />
      </g>
    </g>
    <g
       clip-path="url(#clip-15)"
       id="g1153"
       transform="matrix(0.35277777,0,0,0.35277777,-23.553428,-67.055337)">
      <g
         fill="#000000"
         fill-opacity="1"
         id="g1152">
        <g
           id="use1151"
           transform="translate(315.72,623.09991)">
          <path
             d="m 4.875,-8.34375 -0.078125,0.203125 c -0.230469,0.042969 -0.40625,0.109375 -0.53125,0.203125 -0.117187,0.09375 -0.195313,0.203125 -0.234375,0.328125 -0.0625,0.167969 -0.058594,0.304687 0.015625,0.40625 0.070313,0.105469 0.234375,0.167969 0.484375,0.1875 0.570312,-0.394531 1.019531,-0.664063 1.34375,-0.8125 0.332031,-0.15625 0.609375,-0.234375 0.828125,-0.234375 0.09375,0 0.160156,0.03125 0.203125,0.09375 0.050781,0.0625 0.0625,0.140625 0.03125,0.234375 -0.0625,0.199219 -0.226562,0.371094 -0.484375,0.515625 -0.429687,0.25 -1.023437,0.414062 -1.78125,0.484375 -0.523437,0.34375 -0.84375,0.703125 -0.96875,1.078125 -0.125,0.367188 0.03125,0.652344 0.46875,0.859375 0.445313,-0.15625 0.832031,-0.269531 1.15625,-0.34375 0.320313,-0.082031 0.585937,-0.125 0.796875,-0.125 0.175781,0 0.296875,0.039063 0.359375,0.109375 0.0625,0.0625 0.070313,0.152344 0.03125,0.265625 -0.042969,0.136719 -0.148437,0.246094 -0.3125,0.328125 -0.304687,0.15625 -0.699219,0.234375 -1.1875,0.234375 -0.136719,0 -0.28125,-0.00391 -0.4375,-0.015625 -0.148437,-0.019531 -0.304687,-0.039062 -0.46875,-0.0625 -0.554687,0.199219 -1.042969,0.5 -1.46875,0.90625 -0.429687,0.398438 -0.714844,0.808594 -0.859375,1.234375 -0.117188,0.335937 -0.132812,0.609375 -0.046875,0.828125 0.082031,0.210938 0.226563,0.355469 0.4375,0.4375 0.125,0.054688 0.335937,0.078125 0.640625,0.078125 0.3125,0 0.628906,-0.007813 0.953125,-0.03125 C 4.191406,-0.984375 4.472656,-1 4.609375,-1 c 0.382813,0 0.65625,0.136719 0.8125,0.40625 C 5.578125,-0.3125 5.570312,0.0703125 5.40625,0.5625 5.1875,1.1875 4.84375,1.679688 4.375,2.046875 3.90625,2.410156 3.414062,2.59375 2.90625,2.59375 2.632812,2.59375 2.445312,2.535156 2.34375,2.421875 2.25,2.316406 2.226562,2.203125 2.28125,2.078125 2.3125,1.972656 2.378906,1.882812 2.484375,1.8125 2.585938,1.738281 2.691406,1.703125 2.796875,1.703125 c 0.082031,0 0.21875,0.023437 0.40625,0.078125 0.195313,0.050781 0.335937,0.078125 0.421875,0.078125 0.257812,0 0.507812,-0.089844 0.75,-0.265625 C 4.613281,1.414062 4.785156,1.179688 4.890625,0.890625 4.960938,0.648438 4.953125,0.457031 4.859375,0.3125 4.773438,0.164062 4.628906,0.09375 4.421875,0.09375 4.304688,0.09375 4.113281,0.109375 3.84375,0.140625 3.570312,0.171875 3.304688,0.1875 3.046875,0.1875 2.429688,0.1875 1.984375,0.113281 1.703125,-0.03125 1.421875,-0.1875 1.226562,-0.441406 1.125,-0.796875 1.03125,-1.148438 1.0625,-1.550781 1.21875,-2 c 0.164062,-0.488281 0.453125,-0.960938 0.859375,-1.421875 0.40625,-0.457031 0.941406,-0.84375 1.609375,-1.15625 -0.398438,-0.320313 -0.527344,-0.6875 -0.390625,-1.09375 0.113281,-0.332031 0.394531,-0.6875 0.84375,-1.0625 -0.261719,-0.0625 -0.4375,-0.171875 -0.53125,-0.328125 -0.085937,-0.164062 -0.09375,-0.34375 -0.03125,-0.53125 0.070313,-0.195312 0.207031,-0.363281 0.40625,-0.5 0.195313,-0.144531 0.492187,-0.226562 0.890625,-0.25 z m 0,0"
             id="path77" />
        </g>
      </g>
    </g>
    <path
       fill-rule="nonzero"
       fill="#000000"
       fill-opacity="1"
       d="m 59.398956,148.90805 c 0.02342,1.60403 -0.241156,4.08175 1.460722,4.97472 1.084516,0.59806 3.179134,1.08865 4.380784,0.61322 h -0.02067 l 0.423058,-0.19017 0.08406,-0.0207 0.08544,0.0634 v 0.10473 l -0.06339,0.0854 -0.402385,0.19017 -0.02067,0.0207 -0.21222,0.0648 c -0.428569,0.0978 -0.666969,0.16261 -1.121721,0.14745 -1.032153,-0.0579 -2.072569,-0.26596 -3.005504,-0.71933 -1.059709,-0.53881 -1.434536,-1.12448 -1.693608,-2.2655 -0.09784,-0.6146 -0.180524,-1.1672 -0.1695,-1.79834 v -1.29122 l 0.04272,-0.0854 0.08406,-0.0413 0.106108,0.0413 z m 5.481838,4.74183 2.370226,-0.0634 -1.375283,1.92512"
       id="path1153"
       style="stroke-width:0.352778" />
  </g>
</svg>
