<?xml version="1.0" encoding="UTF-8" standalone="no"?>
<svg
   data-name="Layer 1"
   viewBox="0 0 88.849998 21.040001"
   x="0px"
   y="0px"
   version="1.1"
   id="svg1"
   sodipodi:docname="ogopogo_crop.svg"
   width="88.849998"
   height="21.040001"
   inkscape:version="1.3.2 (091e20e, 2023-11-25)"
   xmlns:inkscape="http://www.inkscape.org/namespaces/inkscape"
   xmlns:sodipodi="http://sodipodi.sourceforge.net/DTD/sodipodi-0.dtd"
   xmlns="http://www.w3.org/2000/svg"
   xmlns:svg="http://www.w3.org/2000/svg"
   xmlns:rdf="http://www.w3.org/1999/02/22-rdf-syntax-ns#"
   xmlns:cc="http://creativecommons.org/ns#"
   xmlns:dc="http://purl.org/dc/elements/1.1/">
  <defs
     id="defs1" />
  <sodipodi:namedview
     id="namedview1"
     pagecolor="#ffffff"
     bordercolor="#000000"
     borderopacity="0.25"
     inkscape:showpageshadow="2"
     inkscape:pageopacity="0.0"
     inkscape:pagecheckerboard="0"
     inkscape:deskcolor="#d1d1d1"
     inkscape:zoom="1.888"
     inkscape:cx="44.226695"
     inkscape:cy="22.775424"
     inkscape:window-width="1312"
     inkscape:window-height="449"
     inkscape:window-x="0"
     inkscape:window-y="38"
     inkscape:window-maximized="0"
     inkscape:current-layer="svg1" />
  <title
     id="title1">noun-ogopogo-line</title>
  <path
     d="m 83.42,18.86 v -7.39 h 4.32 a 1.11,1.11 0 0 0 1.11,-1.11 V 5.88 a 3,3 0 0 0 -3,-3 H 79.68 L 79.58,0 l -2.22,0.04 0.06,2 -1.84,-1.35 a 1.11,1.11 0 0 0 -1.77,0.9 V 7.9 a 3.63,3.63 0 0 0 1.91,3.14 l -0.83,7.82 h -3.7 a 13.52,13.52 0 0 0 -26.38,0 h -3 a 13.52,13.52 0 0 0 -26.38,0 H 12.66 L 6.81,6.75 A 1.11,1.11 0 0 0 4.7,7.23 V 18.86 H 0 v 2.18 H 88.84 V 18.86 Z M 58,10.53 a 11.25,11.25 0 0 1 10.89,8.22 h -3.74 a 7.8,7.8 0 0 0 -14.31,0 H 47.11 A 11.25,11.25 0 0 1 58,10.53 Z m 0,5.75 a 5.53,5.53 0 0 1 4.69,2.59 H 53.31 A 5.53,5.53 0 0 1 58,16.28 Z M 28.59,10.53 a 11.25,11.25 0 0 1 10.89,8.22 h -3.73 a 7.81,7.81 0 0 0 -14.32,0 h -3.72 a 11.41,11.41 0 0 1 10.88,-8.22 z m 0,5.75 a 5.54,5.54 0 0 1 4.7,2.59 h -9.4 a 5.53,5.53 0 0 1 4.7,-2.59 z M 6.92,18.86 v -6.82 l 3.28,6.78 z m 70.2,0 0.89,-8.44 A 1.11,1.11 0 0 0 77.13,9.22 1.39,1.39 0 0 1 76.04,7.85 V 3.73 l 1.52,1.11 a 1.11,1.11 0 0 0 0.66,0.21 h 7.59 a 0.82,0.82 0 0 1 0.81,0.82 V 9.24 H 82.3 a 1.11,1.11 0 0 0 -1.11,1.11 v 8.5 z"
     id="path1" />
  <metadata
     id="metadata1">
    <rdf:RDF>
      <cc:Work
         rdf:about="">
        <dc:title>noun-ogopogo-line</dc:title>
      </cc:Work>
    </rdf:RDF>
  </metadata>
</svg>
