<?xml version="1.0" encoding="UTF-8" standalone="no"?>
<!-- Created with Inkscape (http://www.inkscape.org/) -->

<svg
   width="66.936829mm"
   height="67.176216mm"
   viewBox="0 0 66.936829 67.176216"
   version="1.1"
   id="svg1"
   inkscape:version="1.3.2 (091e20e, 2023-11-25)"
   sodipodi:docname="4_10a3.svg"
   xmlns:inkscape="http://www.inkscape.org/namespaces/inkscape"
   xmlns:sodipodi="http://sodipodi.sourceforge.net/DTD/sodipodi-0.dtd"
   xmlns="http://www.w3.org/2000/svg"
   xmlns:svg="http://www.w3.org/2000/svg">
  <sodipodi:namedview
     id="namedview1"
     pagecolor="#ffffff"
     bordercolor="#000000"
     borderopacity="0.25"
     inkscape:showpageshadow="2"
     inkscape:pageopacity="0.0"
     inkscape:pagecheckerboard="0"
     inkscape:deskcolor="#d1d1d1"
     inkscape:document-units="mm"
     inkscape:zoom="0.2102413"
     inkscape:cx="126.04564"
     inkscape:cy="128.42386"
     inkscape:window-width="1312"
     inkscape:window-height="449"
     inkscape:window-x="0"
     inkscape:window-y="38"
     inkscape:window-maximized="0"
     inkscape:current-layer="layer1" />
  <defs
     id="defs1" />
  <g
     inkscape:label="Layer 1"
     inkscape:groupmode="layer"
     id="layer1"
     transform="translate(-71.702081,-114.82917)">
    <path
       fill-rule="nonzero"
       fill="#d55e00"
       fill-opacity="1"
       stroke-width="0.264583"
       stroke-linecap="round"
       stroke-linejoin="round"
       stroke="#000000"
       stroke-opacity="1"
       stroke-miterlimit="10"
       d="m 71.834372,173.80782 h 8.332999 v -30.37058 h -8.332999 z m 0,0"
       id="path65" />
    <path
       fill-rule="nonzero"
       fill="#d55e00"
       fill-opacity="1"
       stroke-width="0.264583"
       stroke-linecap="round"
       stroke-linejoin="round"
       stroke="#000000"
       stroke-opacity="1"
       stroke-miterlimit="10"
       d="m 101.00606,173.80782 h 8.333 v -45.39946 h -8.333 z m 0,0"
       id="path66" />
    <path
       fill-rule="nonzero"
       fill="#d55e00"
       fill-opacity="1"
       stroke-width="0.264583"
       stroke-linecap="round"
       stroke-linejoin="round"
       stroke="#000000"
       stroke-opacity="1"
       stroke-miterlimit="10"
       d="m 130.17362,173.80782 h 8.333 v -58.84636 h -8.333 z m 0,0"
       id="path67" />
    <g
       fill="#000000"
       fill-opacity="1"
       id="g67"
       transform="matrix(0.35277777,0,0,0.35277777,-83.232127,106.57885)">
      <g
         id="use67"
         transform="translate(448.59,213.62)">
        <path
           d="M 0.953125,-4.953125 V -5.625 c 0.632813,-0.0625 1.078125,-0.164062 1.328125,-0.3125 0.25,-0.144531 0.4375,-0.488281 0.5625,-1.03125 H 3.546875 V 0 h -0.9375 v -4.953125 z m 0,0"
           id="path4" />
      </g>
    </g>
    <g
       fill="#000000"
       fill-opacity="1"
       id="g68"
       transform="matrix(0.35277777,0,0,0.35277777,-83.232127,106.57885)">
      <g
         id="use68"
         transform="translate(531.28003,213.62)">
        <path
           d="m 0.3125,0 c 0.03125,-0.601562 0.15625,-1.125 0.375,-1.5625 0.21875,-0.445312 0.640625,-0.851562 1.265625,-1.21875 l 0.9375,-0.546875 c 0.414063,-0.25 0.710937,-0.457031 0.890625,-0.625 0.257812,-0.269531 0.390625,-0.582031 0.390625,-0.9375 0,-0.40625 -0.125,-0.726563 -0.375,-0.96875 -0.242187,-0.238281 -0.5625,-0.359375 -0.96875,-0.359375 -0.605469,0 -1.023437,0.230469 -1.25,0.6875 -0.125,0.25 -0.195313,0.589844 -0.203125,1.015625 H 0.484375 C 0.492188,-5.117188 0.609375,-5.613281 0.828125,-6 1.203125,-6.675781 1.875,-7.015625 2.84375,-7.015625 c 0.789062,0 1.367188,0.21875 1.734375,0.65625 0.375,0.429687 0.5625,0.90625 0.5625,1.4375 0,0.5625 -0.195313,1.042969 -0.578125,1.4375 -0.230469,0.230469 -0.640625,0.511719 -1.234375,0.84375 L 2.65625,-2.28125 c -0.3125,0.179688 -0.5625,0.351562 -0.75,0.515625 -0.324219,0.28125 -0.527344,0.59375 -0.609375,0.9375 h 3.8125 V 0 Z m 0,0"
           id="path5" />
      </g>
    </g>
    <g
       fill="#000000"
       fill-opacity="1"
       id="g69"
       transform="matrix(0.35277777,0,0,0.35277777,-83.232127,106.57885)">
      <g
         id="use69"
         transform="translate(613.96997,213.62)">
        <path
           d="M 2.59375,0.1875 C 1.769531,0.1875 1.171875,-0.0351562 0.796875,-0.484375 0.421875,-0.941406 0.234375,-1.5 0.234375,-2.15625 H 1.15625 c 0.039062,0.460938 0.125,0.792969 0.25,1 0.226562,0.367188 0.640625,0.546875 1.234375,0.546875 0.46875,0 0.84375,-0.125 1.125,-0.375 0.28125,-0.25 0.421875,-0.566406 0.421875,-0.953125 0,-0.476562 -0.152344,-0.8125 -0.453125,-1 -0.292969,-0.195312 -0.699219,-0.296875 -1.21875,-0.296875 -0.0625,0 -0.125,0 -0.1875,0 -0.0625,0 -0.121094,0 -0.171875,0 V -4 c 0.082031,0.011719 0.15625,0.015625 0.21875,0.015625 0.0625,0 0.128906,0 0.203125,0 0.332031,0 0.601563,-0.050781 0.8125,-0.15625 0.375,-0.175781 0.5625,-0.5 0.5625,-0.96875 0,-0.351563 -0.125,-0.625 -0.375,-0.8125 -0.25,-0.1875 -0.542969,-0.28125 -0.875,-0.28125 -0.585937,0 -0.984375,0.199219 -1.203125,0.59375 -0.125,0.210937 -0.199219,0.511719 -0.21875,0.90625 H 0.421875 c 0,-0.519531 0.101563,-0.960937 0.3125,-1.328125 C 1.085938,-6.675781 1.71875,-7 2.625,-7 c 0.707031,0 1.253906,0.164062 1.640625,0.484375 0.394531,0.3125 0.59375,0.773437 0.59375,1.375 0,0.429687 -0.117187,0.773437 -0.34375,1.03125 -0.148437,0.167969 -0.335937,0.296875 -0.5625,0.390625 0.363281,0.105469 0.648437,0.304688 0.859375,0.59375 0.207031,0.28125 0.3125,0.632812 0.3125,1.046875 0,0.679687 -0.21875,1.226563 -0.65625,1.640625 -0.4375,0.4179688 -1.0625,0.625 -1.875,0.625 z m 0,0"
           id="path1" />
      </g>
    </g>
  </g>
</svg>
