<svg xmlns="http://www.w3.org/2000/svg" data-name="Layer 1" viewBox="0 0 100 125" x="0px" y="0px"><title>noun-ogopogo-line</title><path d="M89,58.82V51.43h4.32a1.11,1.11,0,0,0,1.11-1.11V45.84a3,3,0,0,0-3-3H85.26l-.1-2.88L82.94,40,83,42l-1.84-1.35a1.11,1.11,0,0,0-1.77.9v6.31A3.63,3.63,0,0,0,81.3,51l-.83,7.82h-3.7a13.52,13.52,0,0,0-26.38,0h-3a13.52,13.52,0,0,0-26.38,0H18.24L12.39,46.71a1.11,1.11,0,0,0-2.11.48V58.82H5.58V61H94.42V58.82ZM63.58,50.49a11.25,11.25,0,0,1,10.89,8.22H70.73a7.8,7.8,0,0,0-14.31,0H52.69A11.25,11.25,0,0,1,63.58,50.49Zm0,5.75a5.53,5.53,0,0,1,4.69,2.59H58.89A5.53,5.53,0,0,1,63.58,56.24ZM34.17,50.49a11.25,11.25,0,0,1,10.89,8.22H41.33a7.81,7.81,0,0,0-14.32,0H23.29A11.41,11.41,0,0,1,34.17,50.49Zm0,5.75a5.54,5.54,0,0,1,4.7,2.59h-9.4A5.53,5.53,0,0,1,34.17,56.24ZM12.5,58.82V52l3.28,6.78Zm70.2,0,.89-8.44a1.11,1.11,0,0,0-.88-1.2,1.39,1.39,0,0,1-1.09-1.37V43.69l1.52,1.11a1.11,1.11,0,0,0,.66.21h7.59a.82.82,0,0,1,.81.82v3.37H87.88a1.11,1.11,0,0,0-1.11,1.11v8.5Z"/></svg>